<svg xmlns="http://www.w3.org/2000/svg" viewBox="0 0 512 512">
  <rect width="512" height="512" rx="112" fill="#2f6f4f"/>
  <g transform="translate(16 6)">
    <rect x="120" y="100" width="260" height="290" rx="18" fill="#f4f0e0" stroke="#d8cfa8" stroke-width="4"/>
    <text x="196" y="190" text-anchor="middle" font-family="system-ui,sans-serif" font-weight="700" font-size="66" fill="#2a2018">4</text>
    <!-- bite hole over the second digit of the top row -->
    <path d="M 343.8 182.0 L 331.7 197.3 L 325.6 214.1 L 308.7 220.1 L 291.8 217.8 L 273.2 215.6 L 269.3 196.8 L 256.1 182.0 L 268.4 166.8 L 274.3 149.7 L 291.4 144.1 L 308.2 145.9 L 326.7 148.6 L 330.8 167.2 Z" fill="#2f6f4f" stroke="#c9a06b" stroke-width="5"/>
    <text x="196" y="262" text-anchor="middle" font-family="system-ui,sans-serif" font-weight="700" font-size="58" fill="#2a2018">&#215;6</text>
    <line x1="140" y1="294" x2="360" y2="294" stroke="#2a2018" stroke-width="7"/>
    <text x="196" y="360" text-anchor="middle" font-family="system-ui,sans-serif" font-weight="700" font-size="58" fill="#2a2018">2</text>
    <!-- bite hole over the middle digit of the result -->
    <path d="M 288.2 350.0 L 283.6 361.3 L 279.4 374.4 L 265.4 373.5 L 252.9 381.1 L 244.5 369.5 L 233.2 362.9 L 232.0 350.0 L 236.3 338.6 L 240.6 325.7 L 254.6 326.5 L 267.1 318.9 L 275.4 330.6 L 287.0 337.0 Z" fill="#2f6f4f" stroke="#c9a06b" stroke-width="4"/>
    <text x="324" y="360" text-anchor="middle" font-family="system-ui,sans-serif" font-weight="700" font-size="58" fill="#2a2018">2</text>
    <!-- ladybug nibbling at the corner -->
    <g transform="translate(352 368) rotate(18)">
      <ellipse cx="0" cy="0" rx="26" ry="21" fill="#c0272d"/>
      <line x1="0" y1="-20" x2="0" y2="20" stroke="#2a1012" stroke-width="3"/>
      <circle cx="-10" cy="-7" r="4" fill="#1a0c0d"/>
      <circle cx="10" cy="-5" r="4" fill="#1a0c0d"/>
      <circle cx="-8" cy="9" r="4" fill="#1a0c0d"/>
      <circle cx="9" cy="10" r="4" fill="#1a0c0d"/>
      <circle cx="-22" cy="-16" r="10" fill="#1a0c0d"/>
      <line x1="-27" y1="-24" x2="-34" y2="-32" stroke="#1a0c0d" stroke-width="3" stroke-linecap="round"/>
      <line x1="-18" y1="-24" x2="-16" y2="-34" stroke="#1a0c0d" stroke-width="3" stroke-linecap="round"/>
    </g>
  </g>
</svg>
